<svg xmlns="http://www.w3.org/2000/svg" width="75" viewBox="0 0 76 23" fill="none"><g clip-path="url(#clip0_2730_22703)"><path d="M29.8456 0.533691C31.8118 0.533691 33.5937 0.969943 35.1912 1.84245C36.7888 2.71495 38.0484 3.94997 38.9701 5.54751C39.8917 7.14506 40.3525 8.98838 40.3525 11.0775C40.3525 13.1666 39.8794 15.0099 38.9332 16.6074C37.9869 18.205 36.7089 19.44 35.0991 20.3125C33.4893 21.185 31.6889 21.6213 29.6981 21.6213C27.7319 21.6213 25.9624 21.185 24.3894 20.3125C22.8164 19.44 21.5814 18.205 20.6843 16.6074C19.7873 15.0099 19.3387 13.1666 19.3387 11.0775C19.3387 8.98838 19.7996 7.14506 20.7212 5.54751C21.6429 3.94997 22.9025 2.71495 24.5 1.84245C26.0975 0.969943 27.8794 0.533691 29.8456 0.533691ZM29.8456 5.54751C28.8108 5.54751 27.8729 5.77632 27.0321 6.23393C26.1913 6.69154 25.5284 7.33927 25.0433 8.17715C24.5582 9.01502 24.3157 9.98179 24.3157 11.0775C24.3157 12.1732 24.5518 13.1399 25.0239 13.9778C25.496 14.8157 26.1461 15.4634 26.9739 15.921C27.8018 16.3786 28.7332 16.6074 29.768 16.6074C30.8158 16.6074 31.7633 16.3786 32.6106 15.921C33.4579 15.4634 34.1305 14.8157 34.6286 13.9778C35.1266 13.1399 35.3756 12.1732 35.3756 11.0775C35.3756 9.98179 35.133 9.01502 34.648 8.17715C34.1629 7.33927 33.4999 6.69154 32.6591 6.23393C31.8183 5.77632 30.8805 5.54751 29.8456 5.54751ZM11.0069 0.533691C12.9731 0.533691 14.755 0.969943 16.3525 1.84245C17.9501 2.71495 19.2097 3.94997 20.1313 5.54751C20.6523 6.45048 21.026 7.43197 21.2525 8.49198L15.882 8.4921C15.5239 7.43869 14.7534 6.69154 13.9125 6.23393C13.0717 5.77632 12.1339 5.54751 11.0991 5.54751C10.0643 5.54751 9.12642 5.77632 8.28561 6.23393C7.4448 6.69154 6.78184 7.33927 6.29675 8.17715C5.81167 9.01502 5.56913 9.98179 5.56913 11.0775C5.56913 12.1732 5.8052 13.1399 6.27734 13.9778C6.74949 14.8157 7.3995 15.4634 8.22738 15.921C9.05526 16.3786 9.98662 16.6074 11.0215 16.6074C12.0692 16.6074 13.0168 16.3786 13.8641 15.921C14.7113 15.4634 15.384 14.8157 15.882 13.9778L21.1714 13.9778C20.935 14.918 20.576 15.7945 20.0945 16.6074C19.1482 18.205 17.8702 19.44 16.2604 20.3125C14.6505 21.185 12.8502 21.6213 10.8594 21.6213C8.89324 21.6213 7.12367 21.185 5.55071 20.3125C3.97774 19.44 2.74269 18.205 1.84561 16.6074C0.948524 15.0099 0.5 13.1666 0.5 11.0775C0.5 8.98838 0.960824 7.14506 1.88248 5.54751C2.80414 3.94997 4.06376 2.71495 5.6613 1.84245C7.25885 0.969943 9.04072 0.533691 11.0069 0.533691ZM65.4355 0.533691C67.3771 0.533691 69.116 0.951512 70.6521 1.78715C72.1882 2.62279 73.3802 3.80865 74.2281 5.34475C75.076 6.88085 75.5 8.64429 75.5 10.6351C75.5 11.3724 75.4508 12.036 75.3525 12.6259H60.4217L60.4431 12.8447C60.5972 14.2152 61.1061 15.2974 61.97 16.0913C62.8794 16.9269 63.9977 17.3448 65.3249 17.3448C67.242 17.3448 68.606 16.5214 69.4171 14.8747H74.9839L74.9073 15.1187C74.2989 16.975 73.1938 18.5096 71.5922 19.7226C69.9209 20.9884 67.8687 21.6213 65.4355 21.6213C63.4693 21.6213 61.7059 21.185 60.1452 20.3125C58.5845 19.44 57.3679 18.205 56.4954 16.6074C55.6229 15.0099 55.1866 13.1666 55.1866 11.0775C55.1866 9.27323 55.5 7.65703 56.1268 6.22886L54.5075 6.22891L54.2812 6.232C53.2384 6.26083 52.382 6.49152 51.7123 6.92407C50.9948 7.38752 50.4749 8.0206 50.1528 8.82333C49.8306 9.62605 49.6695 10.543 49.6695 11.5743V16.8145H55.2612V21.5337H39.9533V16.8145H44.0822V5.90221H39.9533V1.18362H49.2544L49.4245 4.7173L49.566 4.46507C49.9046 3.88495 50.3012 3.3639 50.7558 2.9019C51.2753 2.3739 51.9192 1.95551 52.6875 1.64675C53.4558 1.338 54.3877 1.18362 55.4833 1.18362H57.8413L57.8413 3.58444C58.4861 2.88541 59.2356 2.29861 60.0898 1.82402C61.6382 0.963802 63.4201 0.533691 65.4355 0.533691ZM65.288 4.77332C64.01 4.77332 62.9347 5.16042 62.0622 5.93462C61.1897 6.70881 60.6551 7.78408 60.4585 9.16042H70.1544C70.1298 7.83323 69.6506 6.77025 68.7166 5.97148C67.7827 5.1727 66.6398 4.77332 65.288 4.77332Z" fill="currentColor"></path></g><defs><clipPath id="clip0_2730_22703"><rect width="75" height="21.6" fill="currentColor" transform="translate(0.5 0.533691)"></rect></clipPath></defs></svg>